<svg width="127" height="34" viewBox="0 0 127 34" fill="none" xmlns="http://www.w3.org/2000/svg">
<rect width="34" height="34" fill="white" fill-opacity="0.98"/>
<path d="M24.1289 8.37305H9.90771V9.71582C11.7144 9.92334 11.9341 10.1675 11.9341 11.2417V23.1313C11.9341 24.2056 11.7144 24.4497 9.90771 24.6572V26H18.4282V24.6572C16.5239 24.4375 16.2554 24.1323 16.2554 22.9482V17.98H18.6235C19.4902 17.98 19.7832 18.2974 20.1372 20.3726H21.3335V14.0371H20.1372C19.7466 16.1245 19.478 16.4297 18.6235 16.4297H16.2554V9.91113L18.7944 9.99658C21.6265 10.0942 22.3101 10.5337 22.9692 13.2192H24.2388L24.1289 8.37305Z" fill="#191919"/>
<path d="M56.0503 8.37305H42.7324V9.28857C44.417 9.5083 44.6489 9.76465 44.6489 10.8511V23.522C44.6489 24.6084 44.417 24.8647 42.7324 25.0845V26H50.3862V25.0845C48.5796 24.8647 48.3232 24.5474 48.3232 23.3511V17.6748L50.9355 17.6992C52.0586 17.7236 52.376 18.1631 52.73 20.165H53.5479V14.1104H52.73C52.3394 16.1245 52.0464 16.5518 50.9355 16.5762L48.3232 16.6006V9.43506L50.8013 9.52051C53.792 9.64258 54.6831 10.2407 55.3301 12.9873H56.1968L56.0503 8.37305ZM60.2861 11.5713C61.3359 11.5713 62.1904 10.79 62.1904 9.75244C62.1904 8.70264 61.3359 7.93359 60.2861 7.93359C59.2241 7.93359 58.3818 8.70264 58.3818 9.75244C58.3818 10.79 59.2241 11.5713 60.2861 11.5713ZM62.2393 13.5854L57.2344 14.1958V15.0381L58.0522 15.2578C58.7358 15.4653 58.8457 15.6362 58.8457 16.3442V23.876C58.8457 24.6938 58.626 24.9014 57.2344 25.0845V26H63.8506V25.0845C62.459 24.9014 62.2393 24.6938 62.2393 23.876V13.5854ZM71.7974 26.2686C73.9458 26.2686 75.7158 25.4873 76.6191 24.3521V23.4243C75.9233 24.0591 74.7637 24.4741 73.5674 24.4741C70.9551 24.4741 69.0142 22.5576 69.0142 19.3228C69.0142 16.5273 70.5522 14.7817 72.7129 14.7817C73.3721 14.7817 73.9214 14.9038 74.3608 15.1479C73.7017 15.3311 73.2256 15.9536 73.2256 16.7104C73.2256 17.626 73.9458 18.334 74.8857 18.334C75.8135 18.334 76.5581 17.6382 76.5581 16.6128C76.5581 14.916 75.0322 13.4878 72.0781 13.4878C68.4404 13.4878 65.4863 16.0024 65.4863 19.9453C65.4863 23.8271 68.2695 26.2686 71.7974 26.2686ZM79.4756 22.3745C79.4756 25.1821 81.1113 26.2686 83.1133 26.2686C84.6025 26.2686 85.8965 25.6948 86.4702 25.0356V24.1201C86.0918 24.3887 85.5181 24.5718 84.9077 24.5718C83.6992 24.5718 82.8569 23.9248 82.8569 22.0205V15.0137L86.2871 15.1113V13.7441L82.8569 13.8662V11.1074H82.2344L77.9253 14.3667V15.1113H79.4756V22.3745ZM90.4863 11.5713C91.5361 11.5713 92.3906 10.79 92.3906 9.75244C92.3906 8.70264 91.5361 7.93359 90.4863 7.93359C89.4243 7.93359 88.582 8.70264 88.582 9.75244C88.582 10.79 89.4243 11.5713 90.4863 11.5713ZM92.4395 13.5854L87.4346 14.1958V15.0381L88.2524 15.2578C88.936 15.4653 89.0459 15.6362 89.0459 16.3442V23.876C89.0459 24.6938 88.8262 24.9014 87.4346 25.0845V26H94.0508V25.0845C92.6592 24.9014 92.4395 24.6938 92.4395 23.876V13.5854ZM102.242 26.2686C106.075 26.2686 108.943 23.6196 108.943 19.8232C108.943 16.0269 106.16 13.4878 102.376 13.4878C98.5308 13.4878 95.6865 16.1245 95.6865 19.9331C95.6865 23.7173 98.4575 26.2686 102.242 26.2686ZM102.388 25.0356C100.545 25.0356 99.2754 22.9971 99.2754 19.7378C99.2754 16.625 100.35 14.7207 102.242 14.7207C104.073 14.7207 105.342 16.7593 105.342 20.0063C105.342 23.1313 104.268 25.0356 102.388 25.0356ZM115.657 13.5854L110.701 14.1958V15.0381L111.519 15.2578C112.203 15.4653 112.312 15.6362 112.312 16.3442V23.876C112.312 24.6938 112.093 24.9014 110.701 25.0845V26H117.134V25.0845C115.877 24.9136 115.706 24.7305 115.706 23.9492V16.4663C116.121 15.7705 117 15.2578 118.172 15.2578C119.747 15.2578 120.687 16.1855 120.687 17.9556V23.9492C120.687 24.7305 120.516 24.9136 119.271 25.0845V26H125.704V25.0845C124.288 24.9014 124.092 24.6938 124.092 23.876V17.4307C124.092 14.8672 122.383 13.4878 119.869 13.4878C117.818 13.4878 116.329 14.4277 115.657 15.6851V13.5854Z" fill="white" fill-opacity="0.98"/>
</svg>
