<svg width="34" height="34" viewBox="0 0 34 34" fill="none" xmlns="http://www.w3.org/2000/svg">
<rect width="34" height="34" fill="black"/>
<path d="M24.1289 8.37305H9.90771V9.71582C11.7144 9.92334 11.9341 10.1675 11.9341 11.2417V23.1313C11.9341 24.2056 11.7144 24.4497 9.90771 24.6572V26H18.4282V24.6572C16.5239 24.4375 16.2554 24.1323 16.2554 22.9482V17.98H18.6235C19.4902 17.98 19.7832 18.2974 20.1372 20.3726H21.3335V14.0371H20.1372C19.7466 16.1245 19.478 16.4297 18.6235 16.4297H16.2554V9.91113L18.7944 9.99658C21.6265 10.0942 22.3101 10.5337 22.9692 13.2192H24.2388L24.1289 8.37305Z" fill="white"/>
</svg>
